<svg xmlns="http://www.w3.org/2000/svg" viewBox="0 0 32 32">
  <!-- Background circle in Victorian gold/cream -->
  <circle cx="16" cy="16" r="15" fill="#1a3a4a"/>
  <circle cx="16" cy="16" r="13" fill="#f5f0e8"/>

  <!-- Victorian mansion silhouette -->
  <g fill="#1a3a4a">
    <!-- Main building body -->
    <rect x="8" y="16" width="16" height="10" rx="0.5"/>

    <!-- Left tower/turret -->
    <rect x="7" y="12" width="5" height="14"/>
    <polygon points="7,12 9.5,8 12,12"/>

    <!-- Right tower/turret -->
    <rect x="20" y="12" width="5" height="14"/>
    <polygon points="20,12 22.5,8 25,12"/>

    <!-- Center peaked roof -->
    <polygon points="12,16 16,10 20,16"/>

    <!-- Windows -->
    <rect x="9" y="14" width="1.5" height="2" fill="#f5f0e8"/>
    <rect x="21.5" y="14" width="1.5" height="2" fill="#f5f0e8"/>
    <rect x="14" y="18" width="4" height="5" fill="#f5f0e8" rx="2 2 0 0"/>
    <rect x="9" y="19" width="1.5" height="2" fill="#f5f0e8"/>
    <rect x="21.5" y="19" width="1.5" height="2" fill="#f5f0e8"/>
  </g>
</svg>
